<mxfile host="app.diagrams.net" agent="Mozilla/5.0 (Macintosh; Intel Mac OS X 10_15_7) AppleWebKit/537.36 (KHTML, like Gecko) Chrome/131.0.0.0 Safari/537.36" version="25.0.1">
  <diagram name="第 1 页" id="IoDDTNNxHh2z7tZYtkNH">
    <mxGraphModel dx="2739" dy="1015" grid="1" gridSize="10" guides="1" tooltips="1" connect="1" arrows="1" fold="1" page="1" pageScale="1" pageWidth="827" pageHeight="1169" math="0" shadow="0">
      <root>
        <mxCell id="0" />
        <mxCell id="1" parent="0" />
        <mxCell id="_G6n0hr4s4rwrHkxoq3B-1" value="国家线" style="rounded=0;whiteSpace=wrap;html=1;fillColor=#008a00;fontColor=#ffffff;strokeColor=#005700;fontStyle=1" vertex="1" parent="1">
          <mxGeometry x="140" y="130" width="50" height="40" as="geometry" />
        </mxCell>
        <mxCell id="_G6n0hr4s4rwrHkxoq3B-69" style="rounded=0;orthogonalLoop=1;jettySize=auto;html=1;exitX=0.25;exitY=1;exitDx=0;exitDy=0;entryX=0.5;entryY=0;entryDx=0;entryDy=0;" edge="1" parent="1" source="_G6n0hr4s4rwrHkxoq3B-2" target="_G6n0hr4s4rwrHkxoq3B-34">
          <mxGeometry relative="1" as="geometry" />
        </mxCell>
        <mxCell id="_G6n0hr4s4rwrHkxoq3B-2" value="品牌" style="rounded=0;whiteSpace=wrap;html=1;fillColor=#008a00;fontColor=#ffffff;strokeColor=#005700;fontStyle=1" vertex="1" parent="1">
          <mxGeometry x="190" y="130" width="50" height="40" as="geometry" />
        </mxCell>
        <mxCell id="_G6n0hr4s4rwrHkxoq3B-3" value="市场" style="rounded=0;whiteSpace=wrap;html=1;fillColor=#008a00;fontColor=#ffffff;strokeColor=#005700;fontStyle=1" vertex="1" parent="1">
          <mxGeometry x="240" y="130" width="50" height="40" as="geometry" />
        </mxCell>
        <mxCell id="_G6n0hr4s4rwrHkxoq3B-6" value="维度" style="rounded=0;whiteSpace=wrap;html=1;fillColor=#FF0000;fontColor=#ffffff;strokeColor=#005700;fontStyle=1" vertex="1" parent="1">
          <mxGeometry x="300" y="130" width="50" height="40" as="geometry" />
        </mxCell>
        <mxCell id="_G6n0hr4s4rwrHkxoq3B-70" style="rounded=0;orthogonalLoop=1;jettySize=auto;html=1;exitX=0.5;exitY=1;exitDx=0;exitDy=0;" edge="1" parent="1" source="_G6n0hr4s4rwrHkxoq3B-7" target="_G6n0hr4s4rwrHkxoq3B-35">
          <mxGeometry relative="1" as="geometry" />
        </mxCell>
        <mxCell id="_G6n0hr4s4rwrHkxoq3B-7" value="类型" style="rounded=0;whiteSpace=wrap;html=1;fillColor=#008a00;fontColor=#ffffff;strokeColor=#005700;fontStyle=1" vertex="1" parent="1">
          <mxGeometry x="350" y="130" width="50" height="40" as="geometry" />
        </mxCell>
        <mxCell id="_G6n0hr4s4rwrHkxoq3B-10" value="维度" style="rounded=0;whiteSpace=wrap;html=1;fillColor=#e51400;fontColor=#ffffff;strokeColor=#B20000;fontStyle=1" vertex="1" parent="1">
          <mxGeometry x="90" y="130" width="50" height="40" as="geometry" />
        </mxCell>
        <mxCell id="_G6n0hr4s4rwrHkxoq3B-71" style="rounded=0;orthogonalLoop=1;jettySize=auto;html=1;exitX=0.5;exitY=1;exitDx=0;exitDy=0;entryX=0.75;entryY=0;entryDx=0;entryDy=0;" edge="1" parent="1" source="_G6n0hr4s4rwrHkxoq3B-31" target="_G6n0hr4s4rwrHkxoq3B-36">
          <mxGeometry relative="1" as="geometry" />
        </mxCell>
        <mxCell id="_G6n0hr4s4rwrHkxoq3B-31" value="支付方式" style="rounded=0;whiteSpace=wrap;html=1;fillColor=#008a00;fontColor=#ffffff;strokeColor=#005700;fontStyle=1" vertex="1" parent="1">
          <mxGeometry x="460" y="130" width="50" height="40" as="geometry" />
        </mxCell>
        <mxCell id="_G6n0hr4s4rwrHkxoq3B-32" value="维度" style="rounded=0;whiteSpace=wrap;html=1;fillColor=#e51400;fontColor=#ffffff;strokeColor=#B20000;fontStyle=1" vertex="1" parent="1">
          <mxGeometry x="410" y="130" width="50" height="40" as="geometry" />
        </mxCell>
        <mxCell id="_G6n0hr4s4rwrHkxoq3B-33" value="品牌" style="rounded=0;whiteSpace=wrap;html=1;fillColor=#008a00;fontColor=#ffffff;strokeColor=#005700;fontStyle=1" vertex="1" parent="1">
          <mxGeometry x="140" y="340" width="50" height="40" as="geometry" />
        </mxCell>
        <mxCell id="_G6n0hr4s4rwrHkxoq3B-34" value="市场" style="rounded=0;whiteSpace=wrap;html=1;fillColor=#008a00;fontColor=#ffffff;strokeColor=#005700;fontStyle=1" vertex="1" parent="1">
          <mxGeometry x="190" y="340" width="50" height="40" as="geometry" />
        </mxCell>
        <mxCell id="_G6n0hr4s4rwrHkxoq3B-91" style="edgeStyle=orthogonalEdgeStyle;rounded=0;orthogonalLoop=1;jettySize=auto;html=1;exitX=0.5;exitY=1;exitDx=0;exitDy=0;entryX=0.5;entryY=0;entryDx=0;entryDy=0;" edge="1" parent="1" source="_G6n0hr4s4rwrHkxoq3B-35" target="_G6n0hr4s4rwrHkxoq3B-78">
          <mxGeometry relative="1" as="geometry" />
        </mxCell>
        <mxCell id="_G6n0hr4s4rwrHkxoq3B-35" value="类型" style="rounded=0;whiteSpace=wrap;html=1;fillColor=#008a00;fontColor=#ffffff;strokeColor=#005700;fontStyle=1" vertex="1" parent="1">
          <mxGeometry x="240" y="340" width="50" height="40" as="geometry" />
        </mxCell>
        <mxCell id="_G6n0hr4s4rwrHkxoq3B-36" value="支付方式" style="rounded=0;whiteSpace=wrap;html=1;fillColor=#008a00;fontColor=#ffffff;strokeColor=#005700;fontStyle=1" vertex="1" parent="1">
          <mxGeometry x="290" y="340" width="50" height="40" as="geometry" />
        </mxCell>
        <mxCell id="_G6n0hr4s4rwrHkxoq3B-37" value="退货类型" style="rounded=0;whiteSpace=wrap;html=1;fillColor=#008a00;fontColor=#ffffff;strokeColor=#005700;fontStyle=1" vertex="1" parent="1">
          <mxGeometry x="340" y="340" width="50" height="40" as="geometry" />
        </mxCell>
        <mxCell id="_G6n0hr4s4rwrHkxoq3B-40" value="业务维度" style="rounded=0;whiteSpace=wrap;html=1;fillColor=#FFB570;strokeColor=#36393d;fontStyle=1" vertex="1" parent="1">
          <mxGeometry x="90" y="340" width="50" height="40" as="geometry" />
        </mxCell>
        <mxCell id="_G6n0hr4s4rwrHkxoq3B-42" value="业务维度" style="whiteSpace=wrap;html=1;fontStyle=1;fillColor=#1ba1e2;strokeColor=#006EAF;fontColor=#ffffff;" vertex="1" parent="1">
          <mxGeometry x="-120" y="340" width="120" height="40" as="geometry" />
        </mxCell>
        <mxCell id="_G6n0hr4s4rwrHkxoq3B-43" value="数据组织" style="whiteSpace=wrap;html=1;fontStyle=1;fillColor=#1ba1e2;strokeColor=#006EAF;fontColor=#ffffff;" vertex="1" parent="1">
          <mxGeometry x="-120" y="130" width="120" height="40" as="geometry" />
        </mxCell>
        <mxCell id="_G6n0hr4s4rwrHkxoq3B-44" value="&lt;span&gt;&lt;font style=&quot;font-size: 23px;&quot;&gt;退货退款-退货率预估&lt;/font&gt;&lt;/span&gt;" style="rounded=0;whiteSpace=wrap;html=1;fontStyle=1" vertex="1" parent="1">
          <mxGeometry x="-130" y="20" width="320" height="60" as="geometry" />
        </mxCell>
        <mxCell id="_G6n0hr4s4rwrHkxoq3B-45" value="品牌" style="rounded=0;whiteSpace=wrap;html=1;fillColor=#008a00;fontColor=#ffffff;strokeColor=#005700;fontStyle=1" vertex="1" parent="1">
          <mxGeometry x="850" y="130" width="50" height="40" as="geometry" />
        </mxCell>
        <mxCell id="_G6n0hr4s4rwrHkxoq3B-46" value="市场" style="rounded=0;whiteSpace=wrap;html=1;fillColor=#008a00;fontColor=#ffffff;strokeColor=#005700;fontStyle=1" vertex="1" parent="1">
          <mxGeometry x="900" y="130" width="50" height="40" as="geometry" />
        </mxCell>
        <mxCell id="_G6n0hr4s4rwrHkxoq3B-47" value="支付方式" style="rounded=0;whiteSpace=wrap;html=1;fillColor=#008a00;fontColor=#ffffff;strokeColor=#005700;fontStyle=1" vertex="1" parent="1">
          <mxGeometry x="950" y="130" width="50" height="40" as="geometry" />
        </mxCell>
        <mxCell id="_G6n0hr4s4rwrHkxoq3B-48" value="货品来源" style="rounded=0;whiteSpace=wrap;html=1;fillColor=#008a00;fontColor=#ffffff;strokeColor=#005700;fontStyle=1" vertex="1" parent="1">
          <mxGeometry x="1000" y="130" width="50" height="40" as="geometry" />
        </mxCell>
        <mxCell id="_G6n0hr4s4rwrHkxoq3B-49" value="退货类型" style="rounded=0;whiteSpace=wrap;html=1;fillColor=#008a00;fontColor=#ffffff;strokeColor=#005700;fontStyle=1" vertex="1" parent="1">
          <mxGeometry x="1050" y="130" width="50" height="40" as="geometry" />
        </mxCell>
        <mxCell id="_G6n0hr4s4rwrHkxoq3B-50" value="支付月份" style="rounded=0;whiteSpace=wrap;html=1;fillColor=#008a00;fontColor=#ffffff;strokeColor=#005700;fontStyle=1" vertex="1" parent="1">
          <mxGeometry x="1100" y="130" width="50" height="40" as="geometry" />
        </mxCell>
        <mxCell id="_G6n0hr4s4rwrHkxoq3B-51" value="申请退货月份" style="rounded=0;whiteSpace=wrap;html=1;fillColor=#008a00;fontColor=#ffffff;strokeColor=#005700;fontStyle=1" vertex="1" parent="1">
          <mxGeometry x="1150" y="130" width="50" height="40" as="geometry" />
        </mxCell>
        <mxCell id="_G6n0hr4s4rwrHkxoq3B-52" value="申请退货件数" style="rounded=0;whiteSpace=wrap;html=1;fontStyle=1" vertex="1" parent="1">
          <mxGeometry x="1200" y="130" width="50" height="40" as="geometry" />
        </mxCell>
        <mxCell id="_G6n0hr4s4rwrHkxoq3B-53" value="客退退货率" style="rounded=0;whiteSpace=wrap;html=1;fillColor=#e51400;fontColor=#ffffff;strokeColor=#B20000;fontStyle=1" vertex="1" parent="1">
          <mxGeometry x="800" y="130" width="50" height="40" as="geometry" />
        </mxCell>
        <mxCell id="_G6n0hr4s4rwrHkxoq3B-54" value="品牌" style="rounded=0;whiteSpace=wrap;html=1;fillColor=#008a00;fontColor=#ffffff;strokeColor=#005700;fontStyle=1" vertex="1" parent="1">
          <mxGeometry x="930" y="190" width="50" height="40" as="geometry" />
        </mxCell>
        <mxCell id="_G6n0hr4s4rwrHkxoq3B-55" value="市场" style="rounded=0;whiteSpace=wrap;html=1;fillColor=#008a00;fontColor=#ffffff;strokeColor=#005700;fontStyle=1" vertex="1" parent="1">
          <mxGeometry x="980" y="190" width="50" height="40" as="geometry" />
        </mxCell>
        <mxCell id="_G6n0hr4s4rwrHkxoq3B-56" value="支付方式" style="rounded=0;whiteSpace=wrap;html=1;fillColor=#008a00;fontColor=#ffffff;strokeColor=#005700;fontStyle=1" vertex="1" parent="1">
          <mxGeometry x="1030" y="190" width="50" height="40" as="geometry" />
        </mxCell>
        <mxCell id="_G6n0hr4s4rwrHkxoq3B-57" value="货品来源" style="rounded=0;whiteSpace=wrap;html=1;fillColor=#008a00;fontColor=#ffffff;strokeColor=#005700;fontStyle=1" vertex="1" parent="1">
          <mxGeometry x="1080" y="190" width="50" height="40" as="geometry" />
        </mxCell>
        <mxCell id="_G6n0hr4s4rwrHkxoq3B-58" value="退货类型" style="rounded=0;whiteSpace=wrap;html=1;fillColor=#008a00;fontColor=#ffffff;strokeColor=#005700;fontStyle=1" vertex="1" parent="1">
          <mxGeometry x="1130" y="190" width="50" height="40" as="geometry" />
        </mxCell>
        <mxCell id="_G6n0hr4s4rwrHkxoq3B-59" value="支付月份" style="rounded=0;whiteSpace=wrap;html=1;fillColor=#008a00;fontColor=#ffffff;strokeColor=#005700;fontStyle=1" vertex="1" parent="1">
          <mxGeometry x="1180" y="190" width="50" height="40" as="geometry" />
        </mxCell>
        <mxCell id="_G6n0hr4s4rwrHkxoq3B-60" value="退货到仓月份" style="rounded=0;whiteSpace=wrap;html=1;fillColor=#008a00;fontColor=#ffffff;strokeColor=#005700;fontStyle=1" vertex="1" parent="1">
          <mxGeometry x="1230" y="190" width="50" height="40" as="geometry" />
        </mxCell>
        <mxCell id="_G6n0hr4s4rwrHkxoq3B-61" value="退货到仓件数" style="rounded=0;whiteSpace=wrap;html=1;fontStyle=1" vertex="1" parent="1">
          <mxGeometry x="1280" y="190" width="50" height="40" as="geometry" />
        </mxCell>
        <mxCell id="_G6n0hr4s4rwrHkxoq3B-62" value="未妥投退货率" style="rounded=0;whiteSpace=wrap;html=1;fillColor=#e51400;fontColor=#ffffff;strokeColor=#B20000;fontStyle=1" vertex="1" parent="1">
          <mxGeometry x="880" y="190" width="50" height="40" as="geometry" />
        </mxCell>
        <mxCell id="_G6n0hr4s4rwrHkxoq3B-92" style="rounded=0;orthogonalLoop=1;jettySize=auto;html=1;exitX=0.5;exitY=1;exitDx=0;exitDy=0;" edge="1" parent="1" source="_G6n0hr4s4rwrHkxoq3B-63" target="_G6n0hr4s4rwrHkxoq3B-90">
          <mxGeometry relative="1" as="geometry" />
        </mxCell>
        <mxCell id="_G6n0hr4s4rwrHkxoq3B-63" value="月份" style="rounded=0;whiteSpace=wrap;html=1;fillColor=#008a00;fontColor=#ffffff;strokeColor=#005700;fontStyle=1" vertex="1" parent="1">
          <mxGeometry x="700" y="130" width="50" height="40" as="geometry" />
        </mxCell>
        <mxCell id="_G6n0hr4s4rwrHkxoq3B-64" value="维度" style="rounded=0;whiteSpace=wrap;html=1;fillColor=#e51400;fontColor=#ffffff;strokeColor=#B20000;fontStyle=1" vertex="1" parent="1">
          <mxGeometry x="650" y="130" width="50" height="40" as="geometry" />
        </mxCell>
        <mxCell id="_G6n0hr4s4rwrHkxoq3B-75" value="&lt;b&gt;组成业务维度&lt;/b&gt;" style="text;html=1;align=center;verticalAlign=middle;resizable=0;points=[];autosize=1;strokeColor=none;fillColor=none;" vertex="1" parent="1">
          <mxGeometry x="300" y="248" width="100" height="30" as="geometry" />
        </mxCell>
        <mxCell id="_G6n0hr4s4rwrHkxoq3B-76" value="品牌" style="rounded=0;whiteSpace=wrap;html=1;fillColor=#008a00;fontColor=#ffffff;strokeColor=#005700;fontStyle=1" vertex="1" parent="1">
          <mxGeometry x="140" y="490" width="48" height="40" as="geometry" />
        </mxCell>
        <mxCell id="_G6n0hr4s4rwrHkxoq3B-77" value="市场" style="rounded=0;whiteSpace=wrap;html=1;fillColor=#008a00;fontColor=#ffffff;strokeColor=#005700;fontStyle=1" vertex="1" parent="1">
          <mxGeometry x="190" y="490" width="48" height="40" as="geometry" />
        </mxCell>
        <mxCell id="_G6n0hr4s4rwrHkxoq3B-78" value="类型" style="rounded=0;whiteSpace=wrap;html=1;fillColor=#008a00;fontColor=#ffffff;strokeColor=#005700;fontStyle=1" vertex="1" parent="1">
          <mxGeometry x="240" y="490" width="48" height="40" as="geometry" />
        </mxCell>
        <mxCell id="_G6n0hr4s4rwrHkxoq3B-79" value="支付方式" style="rounded=0;whiteSpace=wrap;html=1;fillColor=#008a00;fontColor=#ffffff;strokeColor=#005700;fontStyle=1" vertex="1" parent="1">
          <mxGeometry x="290" y="490" width="48" height="40" as="geometry" />
        </mxCell>
        <mxCell id="_G6n0hr4s4rwrHkxoq3B-80" value="退货类型" style="rounded=0;whiteSpace=wrap;html=1;fillColor=#008a00;fontColor=#ffffff;strokeColor=#005700;fontStyle=1" vertex="1" parent="1">
          <mxGeometry x="340" y="490" width="48" height="40" as="geometry" />
        </mxCell>
        <mxCell id="_G6n0hr4s4rwrHkxoq3B-81" value="计算维度" style="rounded=0;whiteSpace=wrap;html=1;fillColor=#FFB570;strokeColor=#36393d;fontStyle=1" vertex="1" parent="1">
          <mxGeometry x="90" y="490" width="48" height="40" as="geometry" />
        </mxCell>
        <mxCell id="_G6n0hr4s4rwrHkxoq3B-82" value="业务+时间维度" style="whiteSpace=wrap;html=1;fontStyle=1;fillColor=#1ba1e2;strokeColor=#006EAF;fontColor=#ffffff;" vertex="1" parent="1">
          <mxGeometry x="-120" y="490" width="118" height="40" as="geometry" />
        </mxCell>
        <mxCell id="_G6n0hr4s4rwrHkxoq3B-90" value="支付月份" style="rounded=0;whiteSpace=wrap;html=1;fillColor=#008a00;fontColor=#ffffff;strokeColor=#005700;fontStyle=1" vertex="1" parent="1">
          <mxGeometry x="389" y="490" width="48" height="40" as="geometry" />
        </mxCell>
        <mxCell id="_G6n0hr4s4rwrHkxoq3B-95" style="rounded=0;orthogonalLoop=1;jettySize=auto;html=1;exitX=0.5;exitY=1;exitDx=0;exitDy=0;entryX=0.5;entryY=0;entryDx=0;entryDy=0;" edge="1" parent="1" source="_G6n0hr4s4rwrHkxoq3B-93" target="_G6n0hr4s4rwrHkxoq3B-37">
          <mxGeometry relative="1" as="geometry" />
        </mxCell>
        <mxCell id="_G6n0hr4s4rwrHkxoq3B-93" value="退货类型" style="rounded=0;whiteSpace=wrap;html=1;fillColor=#008a00;fontColor=#ffffff;strokeColor=#005700;fontStyle=1" vertex="1" parent="1">
          <mxGeometry x="570" y="130" width="50" height="40" as="geometry" />
        </mxCell>
        <mxCell id="_G6n0hr4s4rwrHkxoq3B-94" value="维度" style="rounded=0;whiteSpace=wrap;html=1;fillColor=#e51400;fontColor=#ffffff;strokeColor=#B20000;fontStyle=1" vertex="1" parent="1">
          <mxGeometry x="520" y="130" width="50" height="40" as="geometry" />
        </mxCell>
        <mxCell id="_G6n0hr4s4rwrHkxoq3B-96" value="&lt;b&gt;使用业务维度+时间维度 组成计算维度&lt;/b&gt;" style="text;html=1;align=center;verticalAlign=middle;resizable=0;points=[];autosize=1;strokeColor=none;fillColor=none;" vertex="1" parent="1">
          <mxGeometry x="195" y="418" width="230" height="30" as="geometry" />
        </mxCell>
        <mxCell id="_G6n0hr4s4rwrHkxoq3B-100" style="rounded=0;orthogonalLoop=1;jettySize=auto;html=1;exitX=0.5;exitY=1;exitDx=0;exitDy=0;entryX=0.5;entryY=0;entryDx=0;entryDy=0;" edge="1" parent="1" source="_G6n0hr4s4rwrHkxoq3B-97" target="_G6n0hr4s4rwrHkxoq3B-99">
          <mxGeometry relative="1" as="geometry" />
        </mxCell>
        <mxCell id="_G6n0hr4s4rwrHkxoq3B-97" value="衍生月份数量" style="rounded=0;whiteSpace=wrap;html=1;fillColor=#008a00;fontColor=#ffffff;strokeColor=#005700;fontStyle=1" vertex="1" parent="1">
          <mxGeometry x="810" y="190" width="50" height="40" as="geometry" />
        </mxCell>
        <mxCell id="_G6n0hr4s4rwrHkxoq3B-98" value="维度" style="rounded=0;whiteSpace=wrap;html=1;fillColor=#e51400;fontColor=#ffffff;strokeColor=#B20000;fontStyle=1" vertex="1" parent="1">
          <mxGeometry x="760" y="190" width="50" height="40" as="geometry" />
        </mxCell>
        <mxCell id="_G6n0hr4s4rwrHkxoq3B-99" value="支付月份+0" style="rounded=0;whiteSpace=wrap;html=1;fillColor=#008a00;fontColor=#ffffff;strokeColor=#005700;fontStyle=1" vertex="1" parent="1">
          <mxGeometry x="439" y="490" width="48" height="40" as="geometry" />
        </mxCell>
        <mxCell id="_G6n0hr4s4rwrHkxoq3B-101" value="品牌" style="rounded=0;whiteSpace=wrap;html=1;fillColor=#008a00;fontColor=#ffffff;strokeColor=#005700;fontStyle=1" vertex="1" parent="1">
          <mxGeometry x="140" y="530" width="48" height="40" as="geometry" />
        </mxCell>
        <mxCell id="_G6n0hr4s4rwrHkxoq3B-102" value="市场" style="rounded=0;whiteSpace=wrap;html=1;fillColor=#008a00;fontColor=#ffffff;strokeColor=#005700;fontStyle=1" vertex="1" parent="1">
          <mxGeometry x="190" y="530" width="48" height="40" as="geometry" />
        </mxCell>
        <mxCell id="_G6n0hr4s4rwrHkxoq3B-103" value="类型" style="rounded=0;whiteSpace=wrap;html=1;fillColor=#008a00;fontColor=#ffffff;strokeColor=#005700;fontStyle=1" vertex="1" parent="1">
          <mxGeometry x="240" y="530" width="48" height="40" as="geometry" />
        </mxCell>
        <mxCell id="_G6n0hr4s4rwrHkxoq3B-104" value="支付方式" style="rounded=0;whiteSpace=wrap;html=1;fillColor=#008a00;fontColor=#ffffff;strokeColor=#005700;fontStyle=1" vertex="1" parent="1">
          <mxGeometry x="290" y="530" width="48" height="40" as="geometry" />
        </mxCell>
        <mxCell id="_G6n0hr4s4rwrHkxoq3B-105" value="退货类型" style="rounded=0;whiteSpace=wrap;html=1;fillColor=#008a00;fontColor=#ffffff;strokeColor=#005700;fontStyle=1" vertex="1" parent="1">
          <mxGeometry x="340" y="530" width="48" height="40" as="geometry" />
        </mxCell>
        <mxCell id="_G6n0hr4s4rwrHkxoq3B-106" value="计算维度" style="rounded=0;whiteSpace=wrap;html=1;fillColor=#FFB570;strokeColor=#36393d;fontStyle=1" vertex="1" parent="1">
          <mxGeometry x="90" y="530" width="48" height="40" as="geometry" />
        </mxCell>
        <mxCell id="_G6n0hr4s4rwrHkxoq3B-107" value="支付月份" style="rounded=0;whiteSpace=wrap;html=1;fillColor=#008a00;fontColor=#ffffff;strokeColor=#005700;fontStyle=1" vertex="1" parent="1">
          <mxGeometry x="389" y="530" width="48" height="40" as="geometry" />
        </mxCell>
        <mxCell id="_G6n0hr4s4rwrHkxoq3B-108" value="支付月份+1" style="rounded=0;whiteSpace=wrap;html=1;fillColor=#008a00;fontColor=#ffffff;strokeColor=#005700;fontStyle=1" vertex="1" parent="1">
          <mxGeometry x="439" y="530" width="48" height="40" as="geometry" />
        </mxCell>
        <mxCell id="_G6n0hr4s4rwrHkxoq3B-109" value="品牌" style="rounded=0;whiteSpace=wrap;html=1;fillColor=#008a00;fontColor=#ffffff;strokeColor=#005700;fontStyle=1" vertex="1" parent="1">
          <mxGeometry x="140" y="570" width="48" height="40" as="geometry" />
        </mxCell>
        <mxCell id="_G6n0hr4s4rwrHkxoq3B-110" value="市场" style="rounded=0;whiteSpace=wrap;html=1;fillColor=#008a00;fontColor=#ffffff;strokeColor=#005700;fontStyle=1" vertex="1" parent="1">
          <mxGeometry x="190" y="570" width="48" height="40" as="geometry" />
        </mxCell>
        <mxCell id="_G6n0hr4s4rwrHkxoq3B-111" value="类型" style="rounded=0;whiteSpace=wrap;html=1;fillColor=#008a00;fontColor=#ffffff;strokeColor=#005700;fontStyle=1" vertex="1" parent="1">
          <mxGeometry x="240" y="570" width="48" height="40" as="geometry" />
        </mxCell>
        <mxCell id="_G6n0hr4s4rwrHkxoq3B-112" value="支付方式" style="rounded=0;whiteSpace=wrap;html=1;fillColor=#008a00;fontColor=#ffffff;strokeColor=#005700;fontStyle=1" vertex="1" parent="1">
          <mxGeometry x="290" y="570" width="48" height="40" as="geometry" />
        </mxCell>
        <mxCell id="_G6n0hr4s4rwrHkxoq3B-113" value="退货类型" style="rounded=0;whiteSpace=wrap;html=1;fillColor=#008a00;fontColor=#ffffff;strokeColor=#005700;fontStyle=1" vertex="1" parent="1">
          <mxGeometry x="340" y="570" width="48" height="40" as="geometry" />
        </mxCell>
        <mxCell id="_G6n0hr4s4rwrHkxoq3B-114" value="计算维度" style="rounded=0;whiteSpace=wrap;html=1;fillColor=#FFB570;strokeColor=#36393d;fontStyle=1" vertex="1" parent="1">
          <mxGeometry x="90" y="570" width="48" height="40" as="geometry" />
        </mxCell>
        <mxCell id="_G6n0hr4s4rwrHkxoq3B-115" value="支付月份" style="rounded=0;whiteSpace=wrap;html=1;fillColor=#008a00;fontColor=#ffffff;strokeColor=#005700;fontStyle=1" vertex="1" parent="1">
          <mxGeometry x="389" y="570" width="48" height="40" as="geometry" />
        </mxCell>
        <mxCell id="_G6n0hr4s4rwrHkxoq3B-116" value="支付月份+2" style="rounded=0;whiteSpace=wrap;html=1;fillColor=#008a00;fontColor=#ffffff;strokeColor=#005700;fontStyle=1" vertex="1" parent="1">
          <mxGeometry x="439" y="570" width="48" height="40" as="geometry" />
        </mxCell>
        <mxCell id="_G6n0hr4s4rwrHkxoq3B-117" value="&lt;b&gt;&lt;font color=&quot;#ff0000&quot;&gt;配置：3&lt;/font&gt;&lt;/b&gt;" style="text;html=1;align=center;verticalAlign=middle;resizable=0;points=[];autosize=1;strokeColor=none;fillColor=none;" vertex="1" parent="1">
          <mxGeometry x="805" y="238" width="70" height="30" as="geometry" />
        </mxCell>
      </root>
    </mxGraphModel>
  </diagram>
</mxfile>
